<svg width="56" height="20" viewBox="0 0 56 20" fill="none" xmlns="http://www.w3.org/2000/svg">
<path d="M9.90137 5.49609C9.90137 4.39152 10.7968 3.49609 11.9014 3.49609H53.5014C54.6059 3.49609 55.5014 4.39152 55.5014 5.49609V14.4961C55.5014 15.6007 54.6059 16.4961 53.5014 16.4961H11.9014C10.7968 16.4961 9.90137 15.6007 9.90137 14.4961V5.49609Z" fill="#FFE7FB"/>
<path d="M24.7125 6H19.499V7.03091H21.551V12.8728H22.6703V7.03091H24.7125V6Z" fill="#9F2089"/>
<path d="M24.6979 8.22874V12.8728H25.7583V10.7029C25.7583 9.61311 26.2787 9.17129 26.9856 9.17129C27.1132 9.17129 27.2507 9.19093 27.339 9.2302V8.19928C27.2605 8.16001 27.1329 8.13056 26.9758 8.13056C26.4259 8.13056 25.9448 8.44474 25.7092 8.97492H25.6896V8.22874H24.6979Z" fill="#9F2089"/>
<path d="M32.2261 12.8728V8.22874H31.1559V10.8993C31.1559 11.5964 30.6748 12.0873 30.0661 12.0873C29.5064 12.0873 29.1824 11.7044 29.1824 10.9877V8.22874H28.122V11.2037C28.122 12.3328 28.7504 13.02 29.7519 13.02C30.4097 13.02 30.9399 12.7059 31.1951 12.2542H31.2442V12.8728H32.2261Z" fill="#9F2089"/>
<path d="M35.2505 13.02C36.3501 13.02 37.0963 12.4309 37.0963 11.4884C37.0963 9.63275 34.5534 10.4575 34.5534 9.43638C34.5534 9.13202 34.789 8.88656 35.2505 8.88656C35.6726 8.88656 36.0163 9.13202 36.0654 9.47566L37.057 9.26947C36.8901 8.56256 36.1636 8.08147 35.221 8.08147C34.1901 8.08147 33.493 8.65092 33.493 9.51493C33.493 11.3706 36.0359 10.5458 36.0359 11.5669C36.0359 11.9597 35.7708 12.2248 35.2799 12.2248C34.7988 12.2248 34.4061 11.9695 34.2883 11.5571L33.3163 11.7535C33.5421 12.5488 34.2588 13.02 35.2505 13.02Z" fill="#9F2089"/>
<path d="M40.0825 12.9709C40.4261 12.9709 40.7207 12.912 40.8778 12.8335L40.7599 11.9793C40.6519 12.0382 40.4949 12.0775 40.2887 12.0775C39.7879 12.0775 39.5425 11.8517 39.5425 11.1644V9.13202H40.8287V8.22874H39.5425V6.74619L38.4723 6.95237V8.22874H37.6279V9.13202H38.4723V11.3411C38.4723 12.5488 39.1301 12.9709 40.0825 12.9709Z" fill="#9F2089"/>
<path d="M45.8226 11.7437L44.9291 11.4786C44.7229 11.9008 44.34 12.1364 43.8393 12.1364C43.0931 12.1364 42.5825 11.6062 42.4844 10.8306H46.0091V10.5655C45.9895 8.96511 44.9782 8.08147 43.7116 8.08147C42.3469 8.08147 41.4043 9.15165 41.4043 10.5655C41.4043 11.9695 42.396 13.02 43.8294 13.02C44.7622 13.02 45.4396 12.5782 45.8226 11.7437ZM43.7313 8.9062C44.3302 8.9062 44.8505 9.27929 44.8996 10.104H42.4942C42.612 9.3382 43.0538 8.9062 43.7313 8.9062Z" fill="#9F2089"/>
<path d="M46.7765 10.5557C46.7765 12.0186 47.6994 13.02 48.9463 13.02C49.5648 13.02 50.1834 12.7648 50.4877 12.1659H50.5172V12.8728H51.499V6H50.4288V8.82765C50.1834 8.39565 49.663 8.08147 48.9659 8.08147C47.719 8.08147 46.7765 9.07311 46.7765 10.5557ZM47.8466 10.5557C47.8466 9.68184 48.3474 9.0142 49.1623 9.0142C49.9674 9.0142 50.4583 9.65238 50.4583 10.5557C50.4583 11.4491 49.9674 12.0775 49.1623 12.0775C48.367 12.0775 47.8466 11.4295 47.8466 10.5557Z" fill="#9F2089"/>
<path d="M16.4995 3.23851L9.02671 0.0597217C8.83951 -0.0198877 8.62909 -0.0199268 8.44193 0.0597217L0.96916 3.23851C0.684546 3.35961 0.499023 3.64429 0.499023 3.96004V10.3202C0.499023 15.6411 3.63793 17.9313 8.44616 19.9421C8.63084 20.0193 8.83775 20.0193 9.02248 19.9421C13.8306 17.9314 16.9696 15.6411 16.9696 10.3202V3.96004C16.9696 3.64429 16.7841 3.35961 16.4995 3.23851Z" fill="#FFE7FB"/>
<path d="M15.7476 3.89379L8.99815 1.02269C8.82907 0.950787 8.63901 0.950752 8.46997 1.02269L1.72053 3.89379C1.46346 4.00316 1.2959 4.2603 1.2959 4.54548V10.29C1.2959 15.0958 4.13097 17.1644 8.47379 18.9805C8.6406 19.0503 8.82748 19.0503 8.99432 18.9805C13.3371 17.1645 16.1722 15.0959 16.1722 10.29V4.54548C16.1722 4.2603 16.0047 4.00316 15.7476 3.89379Z" fill="#60014A"/>
<path d="M10.8517 6.45517C11.6562 6.46131 12.3341 6.73452 12.892 7.27172C13.4565 7.81199 13.7354 8.45664 13.7289 9.21793L13.7062 12.7972C13.703 13.2239 13.3364 13.5678 12.8823 13.5678C12.4314 13.5647 12.0681 13.2178 12.0714 12.7911L12.0941 9.21179C12.0973 8.88026 11.9805 8.59785 11.7275 8.36148C11.4907 8.12818 11.1923 8.01153 10.842 8.01153C10.4852 8.00846 10.1738 8.13125 9.92074 8.38297C9.69043 8.61013 9.57689 8.92324 9.57365 9.23942L9.55419 12.7666C9.55094 13.1994 9.17791 13.5493 8.72053 13.5463C8.26316 13.5432 7.89337 13.1902 7.89661 12.7573L7.91932 9.20872C7.92256 8.89868 7.80903 8.59171 7.58521 8.36455C7.33544 8.11283 7.03052 7.99004 6.66721 7.98697C6.32337 7.9839 6.03143 8.09441 5.77517 8.32771C5.53513 8.55794 5.40538 8.84036 5.40538 9.17189L5.38267 12.7481C5.37943 13.1779 5.00964 13.5248 4.55551 13.5217C4.10138 13.5186 3.73807 13.1687 3.74123 12.7389L3.76402 9.17496C3.76727 8.51496 4.01379 7.86725 4.47766 7.37609C5.07776 6.74373 5.81734 6.42754 6.67695 6.43368C7.49763 6.43982 8.19828 6.71917 8.75946 7.28707C9.33685 6.72224 10.031 6.4521 10.8517 6.45517Z" fill="#FF9D00"/>
</svg>
